<svg width="552.255" height="384.12" viewBox="0 0 500 347.7740700277844" class="looka-1j8o68f"><rect width="100%" height="100%" fill="#283A61" /><defs id="SvgjsDefs1078"></defs> <g transform="translate(125,86.94)"><g id="SvgjsG1079" featurekey="OvNqIF-0" transform="matrix(2.1143431663513184,0,0,2.1143431663513184,19.905973900109096,-74.79003281561457)" fill="#fafbd4"><path xmlns="http://www.w3.org/2000/svg" fill="#fafbd4" d="M57.533,39.926c3.404,3.071,2.269,2.388,7.043,7.956c0,0,20.023-1.534,25.052,4.177  c0,0-0.683,0.34-0.599,1.275c0,0-0.299,0.768,0.599,1.577v0.385c0,0-4.831-3.776-11.035-1.022c-4.929,2.187-5.794,6.857-6.52,7.754  c-0.724,0.896-1.959,3.621-4.388,4.089H29.923c0,0-3.068-12.042-3.294-13.291c-0.227-1.25-2.954-8.976,6.476-13.749  c9.43-4.771,21.813-0.567,22.723,0L57.533,39.926z M46.043,39.914v8.053c0,0-0.087,1.234,2.215,1.193c2.299-0.044,11.889,0,11.889,0  s2.682-0.81,0.595-3.067c-2.087-2.259-2.341-3.493-4.218-4.688c-1.875-1.192-3.578-1.958-6.136-2.173  C47.832,39.02,46.043,38.637,46.043,39.914z M40.759,39.008c-2.215-0.011-5.71,1.375-6.773,1.758  c-1.066,0.384-4.772,3.665-5.625,6.135c-0.851,2.47,1.577,2.514,1.577,2.514s8.522,0.085,11.248,0c2.727-0.084,2.6-1.278,2.6-1.278  v-7.882C43.784,38.807,42.975,39.02,40.759,39.008z"></path><path xmlns="http://www.w3.org/2000/svg" fill="#fafbd4" d="M57.689,38.961c0,0,0.408-1.214-2.603-1.942c-3.011-0.727-5.68-2.148-20.451-1.466  c-14.77,0.682-20.847,11.39-21.274,11.986l-7.669,12.1v1.707c0,0,6.05-8.098,12.868-8.183c6.816-0.085,8.137,3.894,8.137,3.894  s-4.162-8.238,0.099-13.945c4.261-5.71,10.169-6.439,11.19-6.63C39.012,36.293,48.16,34.814,57.689,38.961z"></path><path xmlns="http://www.w3.org/2000/svg" fill="#fafbd4" d="M5.24,64.686c0,0,5.369-9.871,13.322-9.984c7.953-0.114,9.257,7.658,10.11,11.747  C28.672,66.447,7.285,65.991,5.24,64.686z"></path><path xmlns="http://www.w3.org/2000/svg" fill="#fafbd4" d="M11.957,66.859c0,0-1.234,8.856,7.229,9.541c8.465,0.681,8.692-8.068,8.692-8.068v-0.964l-3.003,0.51  c0,0,1.299,6.931-5.633,6.646c0,0-5.794-0.057-4.885-7.155L11.957,66.859z"></path><path xmlns="http://www.w3.org/2000/svg" fill="#fafbd4" d="M30.149,67.197h37.608c0,0,3.918,0.171,6.306-6.988c2.386-7.158,15.508-7.216,17.553-1.761  c0,0,2.273,2.045,1.59,7.271l-2.043,0.909c0,0-0.342-7.681-8.637-7.612c-6.76,0.058-8.176,5.865-8.519,8.935  c-0.342,3.067-4.659,3.108-7.272,3.108c-2.614,0-8.293-2.5-36.585-2.727h-1.078L30.149,67.197z"></path><path xmlns="http://www.w3.org/2000/svg" fill="#fafbd4" d="M75.311,67.736c0-4.234,3.436-7.672,7.67-7.672c4.236,0,7.67,3.438,7.67,7.672s-3.434,7.666-7.67,7.666  C78.745,75.402,75.311,71.971,75.311,67.736z M82.98,73.702c2.987,0,5.412-2.425,5.412-5.413s-2.425-5.412-5.412-5.412  s-5.41,2.424-5.41,5.412S79.993,73.702,82.98,73.702z"></path><path xmlns="http://www.w3.org/2000/svg" fill="#fafbd4" d="M93.093,56.531c0,0,1.689,1.891,1.039,5.086c0,0-1.272-3.215-2.211-4.234  C91.921,57.383,92.768,56.994,93.093,56.531z"></path><path xmlns="http://www.w3.org/2000/svg" fill="#fafbd4" d="M91.756,56.531c0,0,0.383-0.557,0.383-0.896c0,0,0.811,0.171,1.15,0.212  c0.341,0.043,0.582-0.955,0.554-1.904c-0.028-0.95,0.028-2.369-1.221-2.17s-2.585,0.881-2.613,1.531  c-0.028,0.653-0.057,1.252,0.737,1.764c0,0,0.343,0,0.541,0l-0.028,1.035C91.259,56.104,91.77,56.402,91.756,56.531z"></path><path xmlns="http://www.w3.org/2000/svg" fill="#fafbd4" d="M94.018,63.702c0,0,1.699-1.106,1.963-3.894c0.004-0.035,0.006-0.074,0.01-0.113  c0,0,0.482-0.396,0.738,2.303c0.258,2.697,0.455,3.605,0,3.777c-0.455,0.17,0.258,1.309-1.562,1.252c0,0-0.425-0.457,0.341-0.569  c0.766-0.114,0.624-0.683-0.285-0.825c-0.908-0.142-1.306,0.198-1.205-1.076C94.115,63.277,94.018,63.702,94.018,63.702z"></path><path xmlns="http://www.w3.org/2000/svg" fill="#fafbd4" d="M4.358,62.85c0,0-1.931,0.483-1.817,1.252c0,0,0.227,0.822,0.113,1.418c0,0-0.681,0.823,0.229,0.938  c0,0,0.766,0.397,0.681-0.797c0,0,0.113-0.624,0.51-1.361c0.399-0.739,0.513-1.45,0.399-1.45C4.358,62.85,4.358,62.85,4.358,62.85z"></path><path xmlns="http://www.w3.org/2000/svg" fill="#fafbd4" d="M5.24,59.838v2.188c0,0-0.513,0.369-0.896,0.256c-0.383-0.112-0.156-2.443-0.156-2.443  S4.957,59.583,5.24,59.838z"></path></g><g id="SvgjsG1080" featurekey="1cK3sX-0" transform="matrix(2.8100790977478027,0,0,2.8100790977478027,-3.9341129223758546,90.21521557074328)" fill="#ffd54f"><path d="M8.56 13.08 l0 2.02 c0 0.58 0.1 2.46 -0.44 3.42 c-0.62 1.1 -1.8 1.42 -2.9 1.48 c-1.08 0.06 -2.1 -0.34 -2.86 -1.1 c-0.8 -0.76 -0.92 -1.72 -0.96 -2.44 l0 -6.92 c0.04 -0.72 0.16 -1.68 0.96 -2.44 c0.76 -0.76 1.78 -1.16 2.86 -1.1 c2.32 0.12 3.24 1.54 3.24 3.86 c0 0.52 -2.18 0.6 -2.18 -0.08 c0 -1.56 -0.92 -1.64 -1.86 -1.38 c-0.62 0.28 -0.74 1 -0.74 1.52 l0 6.18 c0.02 0.5 0.08 1.22 0.7 1.5 c0.48 0.16 1.94 0.4 2.06 -0.8 c0.04 -0.18 0.02 -1.08 0.02 -1.3 l-0.02 -1.24 l-0.88 0 c-0.6 0 -0.6 -2.3 0 -2.3 l2.02 0 c0.98 0 0.98 0 0.98 1.12 z M17.82 17.46 c-0.36 1.54 -1.44 2.54 -3.14 2.54 l-0.52 0 c-1.68 0 -2.76 -1 -3.14 -2.54 c-0.02 -0.12 -0.08 -8.56 -0.06 -8.64 c0.28 -1.68 1.32 -2.78 3.2 -2.82 l0.52 0 c1.9 0.04 2.92 1.14 3.2 2.82 c0.02 0.08 -0.02 8.5 -0.06 8.64 z M15.68 16.14 l0 -6.26 c0 -0.48 -0.12 -1.18 -0.7 -1.46 c-0.34 -0.18 -0.78 -0.18 -1.12 0 c-0.58 0.28 -0.7 0.98 -0.7 1.46 l0 6.26 c0.02 0.48 0.12 1.18 0.7 1.46 c0.34 0.18 0.78 0.18 1.12 0 c0.58 -0.28 0.68 -0.98 0.7 -1.46 z M25.380000000000003 6.42 l2.08 12.7 c0.16 1 -2.1 1.1 -2.22 0.38 l-0.4 -2.4 l-2.34 0 l-0.4 2.4 c-0.1 0.6 -2.38 0.62 -2.22 -0.38 l2.1 -12.7 c0.1 -0.6 3.32 -0.54 3.4 0 z M24.46 14.84 l-0.78 -4.78 l-0.8 4.78 l1.58 0 z M43.66 12.98 l1.12 -6.56 c0.1 -0.62 2.44 -0.6 2.26 0.4 l-2.16 12.52 c-0.2 1 -2.14 0.7 -2.26 0.1 l-1.36 -6.96 l-1.38 6.96 c-0.1 0.6 -2.08 0.9 -2.26 -0.1 l-2.16 -12.52 c-0.18 -1 2.16 -1.02 2.26 -0.4 l1.12 6.56 l1.26 -6.54 c0.2 -0.6 2.1 -0.6 2.3 0 z M56.6 6.460000000000001 l0 13.1 c0 0.6 -2.3 0.6 -2.3 0 l0 -5.36 l-2.58 0 l0 5.36 c0 0.6 -2.28 0.6 -2.28 0 l0 -13.1 c0 -0.6 2.28 -0.6 2.28 0 l0 5.48 l2.58 0 l0 -5.48 c0 -0.6 2.3 -0.6 2.3 0 z M61.68 17.72 l2.86 0 c0.6 0 0.6 2.28 0 2.28 l-3.86 0 c-1.28 0 -1.28 0 -1.28 -1.08 l0 -11.84 c0 -1.08 0 -1.08 1.22 -1.1 l3.9 0.02 c0.6 0 0.6 2.28 0 2.28 l-2.84 0 l0 3.64 l2 0 c0.6 0 0.6 2.3 0 2.3 l-2 0 l0 3.5 z M70.08000000000001 17.72 l2.86 0 c0.6 0 0.6 2.28 0 2.28 l-3.86 0 c-1.28 0 -1.28 0 -1.28 -1.08 l0 -11.84 c0 -1.08 0 -1.08 1.22 -1.1 l3.9 0.02 c0.6 0 0.6 2.28 0 2.28 l-2.84 0 l0 3.64 l2 0 c0.6 0 0.6 2.3 0 2.3 l-2 0 l0 3.5 z M78.48000000000002 17.740000000000002 l2.88 0 c0.4 0 0.4 2.26 0 2.26 l-4.02 0 c-1.14 0 -1.14 0 -1.14 -1.1 l0 -12.44 c0 -0.4 2.28 -0.4 2.28 0 l0 11.28 z M90.36000000000001 16.42 c0.04 0.68 -0.14 1.44 -0.52 2 c-0.18 0.26 -0.38 0.52 -0.64 0.74 c-0.16 0.12 -0.32 0.26 -0.5 0.36 s-0.38 0.18 -0.56 0.26 c-0.6 0.26 -1.32 0.28 -1.94 0.12 c-0.32 -0.08 -0.62 -0.2 -0.9 -0.38 c-0.26 -0.16 -0.54 -0.36 -0.74 -0.6 c-0.22 -0.24 -0.42 -0.5 -0.56 -0.8 c-0.08 -0.18 -0.18 -0.38 -0.24 -0.58 c-0.04 -0.2 -0.1 -0.72 -0.1 -0.92 c0 -0.6 2.24 -0.6 2.24 0 c0 0.5 0.78 1.84 1.98 0.64 c0.5 -0.72 0.04 -1.54 -0.4 -2.14 c-0.68 -0.84 -1.56 -1.48 -2.28 -2.28 c-0.42 -0.46 -0.84 -0.98 -1.1 -1.56 c-0.14 -0.32 -0.26 -0.64 -0.34 -1 c-0.3 -1.66 0.22 -4.62 3.84 -4.28 c1.82 0.18 2.62 1.74 2.62 2.8 c0 0.6 -2.28 0.6 -2.28 0 c0 -0.8 -2.26 -0.9 -1.98 0.86 c0.04 0.18 0.08 0.36 0.16 0.54 c0.12 0.26 0.26 0.48 0.42 0.7 c0.2 0.26 0.4 0.48 0.64 0.7 c0.88 0.86 1.88 1.64 2.52 2.74 c0.38 0.64 0.6 1.34 0.66 2.08 z"></path></g><g id="SvgjsG1081" featurekey="rGnxgP-0" transform="matrix(0.5439335107803345,0,0,0.5439335107803345,24.673639701500566,162.84518568320192)" fill="#fafbd4"><path d="M12.7 6 l-5.22 7.54 l0 6.46 l-1.66 0 l0 -6.46 l-5.22 -7.54 l1.9 0 l4.14 6.02 l4.16 -6.02 l1.9 0 z M28.152 5.800000000000001 c3.64 0 7.16 2.96 7.16 7.2 s-3.52 7.2 -7.16 7.2 c-3.66 0 -7.16 -2.96 -7.16 -7.2 s3.5 -7.2 7.16 -7.2 z M28.152 18.62 c2.74 0 5.44 -2.32 5.44 -5.62 s-2.7 -5.62 -5.44 -5.62 c-2.76 0 -5.44 2.32 -5.44 5.62 s2.68 5.62 5.44 5.62 z M52.70400000000001 6 l1.66 0 l0 8.92 c0 3.44 -2.24 5.38 -5.08 5.38 s-5.08 -1.94 -5.08 -5.38 l0 -8.92 l1.66 0 l0 8.92 c0 2.62 1.56 3.8 3.42 3.8 s3.42 -1.18 3.42 -3.8 l0 -8.92 z M80.50800000000001 6 c4.08 0 7.08 3.1 7.08 7 s-3 7 -7.08 7 l-4.16 0 l0 -14 l4.16 0 z M80.48800000000001 18.42 c3.34 0 5.4 -2.42 5.4 -5.42 s-2.06 -5.42 -5.4 -5.42 l-2.48 0 l0 10.84 l2.48 0 z M106.66000000000001 20 l-1.8 0 l-3.54 -5.04 l-0.38 0 l-2.9 0 l0 5.04 l-1.66 0 l0 -14 l4.56 0 c3.14 0 4.96 1.92 4.96 4.52 c0 2 -1.08 3.56 -3 4.16 z M98.04 7.5600000000000005 l0 5.92 l2.86 0 c2.02 0 3.34 -1.04 3.34 -2.96 c0 -1.94 -1.32 -2.96 -3.34 -2.96 l-2.86 0 z M116.712 6 l0 14 l-1.66 0 l0 -14 l1.66 0 z M137.22400000000002 6 l1.76 0 l-6.26 14 l-1.38 0 l-6.24 -14 l1.76 0 l5.18 11.82 z M149.03600000000003 18.44 l6.66 0 l0 1.56 l-7.06 0 l-1.26 0 l0 -14 l1.66 0 l6.48 0 l0 1.56 l-6.48 0 l0 4.64 l5.04 0 l0 1.52 l-5.04 0 l0 4.72 z M165.068 20.1 c-0.66 0 -0.98 -0.32 -0.98 -0.98 s0.32 -0.98 0.98 -0.98 s0.98 0.32 0.98 0.98 s-0.32 0.98 -0.98 0.98 z M205.85200000000003 6 l-4.52 14 l-1.08 0 l-3.86 -10.94 l-3.84 10.94 l-1.08 0 l-4.54 -14 l1.72 0 l3.42 10.58 l3.74 -10.58 l1.16 0 l3.76 10.58 l3.42 -10.58 l1.7 0 z M216.10400000000004 18.44 l6.66 0 l0 1.56 l-7.06 0 l-1.26 0 l0 -14 l1.66 0 l6.48 0 l0 1.56 l-6.48 0 l0 4.64 l5.04 0 l0 1.52 l-5.04 0 l0 4.72 z M248.60800000000003 6 c4.08 0 7.08 3.1 7.08 7 s-3 7 -7.08 7 l-4.16 0 l0 -14 l4.16 0 z M248.58800000000002 18.42 c3.34 0 5.4 -2.42 5.4 -5.42 s-2.06 -5.42 -5.4 -5.42 l-2.48 0 l0 10.84 l2.48 0 z M266.14000000000004 18.44 l6.66 0 l0 1.56 l-7.06 0 l-1.26 0 l0 -14 l1.66 0 l6.48 0 l0 1.56 l-6.48 0 l0 4.64 l5.04 0 l0 1.52 l-5.04 0 l0 4.72 z M283.35200000000003 18.44 l6.28 0 l0 1.56 l-7.94 0 l0 -14 l1.66 0 l0 12.44 z M300.08400000000006 6 l0 14 l-1.66 0 l0 -14 l1.66 0 z M320.596 6 l1.76 0 l-6.26 14 l-1.38 0 l-6.24 -14 l1.76 0 l5.18 11.82 z M332.408 18.44 l6.66 0 l0 1.56 l-7.06 0 l-1.26 0 l0 -14 l1.66 0 l6.48 0 l0 1.56 l-6.48 0 l0 4.64 l5.04 0 l0 1.52 l-5.04 0 l0 4.72 z M358.24 20 l-1.8 0 l-3.54 -5.04 l-0.38 0 l-2.9 0 l0 5.04 l-1.66 0 l0 -14 l4.56 0 c3.14 0 4.96 1.92 4.96 4.52 c0 2 -1.08 3.56 -3 4.16 z M349.62 7.5600000000000005 l0 5.92 l2.86 0 c2.02 0 3.34 -1.04 3.34 -2.96 c0 -1.94 -1.32 -2.96 -3.34 -2.96 l-2.86 0 z M367.312 20.1 c-0.66 0 -0.98 -0.32 -0.98 -0.98 s0.32 -0.98 0.98 -0.98 s0.98 0.32 0.98 0.98 s-0.32 0.98 -0.98 0.98 z"></path></g></g></svg>