<svg width="1440" height="320" viewBox="0 0 1440 320" xmlns="http://www.w3.org/2000/svg">
  <path fill="#0891B2" fill-opacity="0.1" d="M0,192L48,197.3C96,203,192,213,288,202.7C384,192,480,160,576,154.7C672,149,768,171,864,176C960,181,1056,171,1152,149.3C1248,128,1344,96,1392,80L1440,64L1440,320L1392,320C1344,320,1248,320,1152,320C1056,320,960,320,864,320C768,320,672,320,576,320C480,320,384,320,288,320C192,320,96,320,48,320L0,320Z"></path>
  <path fill="#0891B2" fill-opacity="0.05" d="M0,224L48,213.3C96,203,192,181,288,160C384,139,480,117,576,128C672,139,768,181,864,208C960,235,1056,245,1152,229.3C1248,213,1344,171,1392,149.3L1440,128L1440,320L1392,320C1344,320,1248,320,1152,320C1056,320,960,320,864,320C768,320,672,320,576,320C480,320,384,320,288,320C192,320,96,320,48,320L0,320Z"></path>
  <path fill="#F5F0BB" fill-opacity="0.07" d="M0,96L48,106.7C96,117,192,139,288,160C384,181,480,203,576,181.3C672,160,768,96,864,90.7C960,85,1056,139,1152,154.7C1248,171,1344,149,1392,138.7L1440,128L1440,320L1392,320C1344,320,1248,320,1152,320C1056,320,960,320,864,320C768,320,672,320,576,320C480,320,384,320,288,320C192,320,96,320,48,320L0,320Z"></path>
</svg>